<svg width="32" height="32" viewBox="0 0 32 32" fill="none" xmlns="http://www.w3.org/2000/svg">
<path d="M6.8929 9.70712L13.1858 16L6.8929 22.2929C6.11578 23.07 6.11578 24.33 6.8929 25.1071C7.67003 25.8842 8.92999 25.8842 9.70712 25.1071L16 18.8142L22.2929 25.1071C23.07 25.8842 24.33 25.8842 25.1071 25.1071C25.8842 24.33 25.8842 23.07 25.1071 22.2929L18.8142 16L25.1071 9.70711C25.8842 8.92999 25.8842 7.67003 25.1071 6.8929C24.33 6.11578 23.07 6.11578 22.2929 6.8929L16 13.1858L9.70711 6.8929C8.92999 6.11578 7.67003 6.11578 6.8929 6.8929C6.11578 7.67003 6.11578 8.92999 6.8929 9.70712Z" fill="#DB6052"/>
</svg>
