<svg width="228" height="216" viewBox="0 0 228 216" fill="none" xmlns="http://www.w3.org/2000/svg">
<path d="M179.148 57.2792C179.279 57.4173 179.392 57.5627 179.487 57.7132C179.879 58.1574 180.125 58.7299 180.16 59.3569L183.957 128.723L196.298 96.3901C197.255 93.8815 200.886 94.1411 201.476 96.7603L211.037 139.141L225.771 207.719C226.133 209.407 224.846 211 223.119 211H154.965C154.961 211 154.957 211 154.952 211H72.7306L72.7174 211H5.90844C4.01643 211 2.70602 209.111 3.36837 207.339L16.822 171.34C16.9057 171.116 16.9594 170.883 16.9817 170.645L22.0292 116.964C22.2449 114.67 25.0415 113.673 26.6594 115.313L41.434 130.29L36.2877 22.2405C36.1895 20.5403 37.6644 19.1715 39.3525 19.3961L58.3756 21.927L62.7352 5.32994C63.0995 3.94331 64.4801 3.07981 65.8863 3.35917L113.763 31.8708C114.288 31.975 114.831 31.9218 115.326 31.7177L141.999 10.7094C143.035 10.2819 144.227 10.5356 144.999 11.3479L179.148 57.2792Z" fill="#61D4A3"/>
<path d="M78.769 161.515C85.6566 165.272 94.2902 166.023 99.4318 166.023C104.261 166.023 110.702 165.898 120.095 161.515L120.095 167.224C113.215 170.097 106.327 171.533 99.4318 171.533C92.5366 171.533 85.649 170.097 78.769 167.224L78.769 161.515Z" fill="#313131"/>
<path fill-rule="evenodd" clip-rule="evenodd" d="M97.428 138.347V116.432H102.688V138.347H97.428Z" fill="#313131"/>
<rect x="64.9939" y="96.3956" width="10.0183" height="10.0183" fill="#313131"/>
<rect x="123.851" y="96.3956" width="10.0183" height="10.0183" fill="#313131"/>
</svg>
