<svg width="240" height="240" viewBox="0 0 240 240" fill="none" xmlns="http://www.w3.org/2000/svg">
<path d="M60.2113 53.8106C60.2113 52.5696 61.3299 51.6281 62.5528 51.84L198.857 75.457C199.789 75.6186 200.481 76.4115 200.514 77.3572L205.938 231.266C205.978 232.398 205.071 233.337 203.939 233.337H62.2113C61.1067 233.337 60.2113 232.441 60.2113 231.337V53.8106Z" fill="#61D4A3"/>
<path d="M121.308 184.737C128.937 187.922 136.574 189.515 144.22 189.515C151.865 189.515 159.502 187.922 167.131 184.737L167.131 191.067C159.502 194.253 151.865 195.845 144.22 195.845C136.574 195.845 128.937 194.253 121.308 191.067L121.308 184.737Z" fill="#313131"/>
<rect x="100.48" y="105.588" width="11.1085" height="11.1085" fill="#313131"/>
<rect x="165.742" y="105.588" width="11.1085" height="11.1085" fill="#313131"/>
<path fill-rule="evenodd" clip-rule="evenodd" d="M143.422 131.914L138.075 133.417L143.331 152.105H131.028V157.66H150.663L143.422 131.914Z" fill="#313131"/>
<path d="M16.0196 233.337H70.6256H88.5872C89.9783 233.337 90.9445 231.952 90.4642 230.646L66.2463 164.823C65.6048 163.08 63.1403 163.077 62.4942 164.818L49.232 200.568C48.8014 201.729 47.43 202.224 46.3575 201.605L32.3158 193.504C31.2751 192.904 29.9436 193.35 29.4749 194.456L14.1781 230.556C13.6193 231.875 14.5873 233.337 16.0196 233.337Z" fill="#61D4A3"/>
<path d="M71.1949 80.5941H152.551H199.081C200.619 80.5941 201.582 78.9299 200.815 77.5965L161.764 9.73876C161.032 8.46631 159.224 8.39016 158.387 9.59652L131.182 48.8225C130.679 49.5484 129.759 49.858 128.919 49.5841L99.7464 40.0714C98.9382 39.8078 98.0517 40.084 97.5362 40.76L69.6047 77.3812C68.6007 78.6976 69.5394 80.5941 71.1949 80.5941Z" fill="#61D4A3"/>
<path d="M152.099 233.337H206.705H224.667C226.058 233.337 227.024 231.952 226.544 230.646L202.326 164.823C201.685 163.08 199.22 163.077 198.574 164.818L185.312 200.568C184.881 201.729 183.51 202.224 182.437 201.605L168.396 193.504C167.355 192.904 166.023 193.35 165.555 194.456L150.258 230.556C149.699 231.875 150.667 233.337 152.099 233.337Z" fill="#61D4A3"/>
</svg>
