<svg width="48" height="48" viewBox="0 0 48 48" fill="none" xmlns="http://www.w3.org/2000/svg">
<path d="M22.155 38.3342L24 40L25.845 38.3342C29.018 35.4193 31.6413 32.9047 33.7148 30.7906C35.7883 28.6764 37.44 26.7865 38.67 25.1207C39.9 23.455 40.7625 21.9468 41.2575 20.5962C41.7525 19.2456 42 17.8799 42 16.4993C42 13.7934 41.0925 11.5338 39.2775 9.72027C37.4625 7.90676 35.22 7 32.55 7C30.93 7 29.415 7.38267 28.005 8.14802C26.595 8.91337 25.26 10.1064 24 11.7271C22.92 10.1965 21.6525 9.02592 20.1975 8.21555C18.7425 7.40518 17.16 7 15.45 7C12.78 7 10.5375 7.90676 8.7225 9.72027C6.9075 11.5338 6 13.7934 6 16.4993C6 17.8799 6.2475 19.2456 6.7425 20.5962C7.2375 21.9468 8.1 23.455 9.33 25.1207C10.56 26.7865 12.2117 28.6764 14.2852 30.7906C16.3587 32.9047 18.982 35.4193 22.155 38.3342Z" fill="black"/>
</svg>
