<svg width="476" height="185" viewBox="0 0 476 185" fill="none" xmlns="http://www.w3.org/2000/svg">
<path d="M53 43.3763C53 42.1352 54.1186 41.1938 55.3414 41.4057L152.4 58.2228C153.332 58.3843 154.024 59.1772 154.057 60.1229L157.927 169.93C157.967 171.061 157.06 172 155.928 172H55C53.8954 172 53 171.105 53 170V43.3763Z" fill="#61D4A3"/>
<path d="M97 137C102.494 139.294 107.994 140.441 113.5 140.441C119.006 140.441 124.506 139.294 130 137L130 141.559C124.506 143.853 119.006 145 113.5 145C107.994 145 102.494 143.853 97 141.559L97 137Z" fill="#313131"/>
<rect x="82" y="80" width="8" height="8" fill="#313131"/>
<rect x="129" y="80" width="8" height="8" fill="#313131"/>
<path fill-rule="evenodd" clip-rule="evenodd" d="M112.925 98.9585L109.075 100.041L112.86 113.5H104V117.5H118.14L112.925 98.9585Z" fill="#313131"/>
<path d="M22.0196 172H60.5H72.6331C74.0242 172 74.9904 170.615 74.5101 169.309L57.8693 124.081C57.2278 122.337 54.7632 122.334 54.1171 124.076L45.3236 147.78C44.8929 148.941 43.5215 149.435 42.449 148.817L33.4587 143.63C32.418 143.03 31.0865 143.476 30.6178 144.582L20.1781 169.22C19.6193 170.539 20.5873 172 22.0196 172Z" fill="#61D4A3"/>
<path d="M62.0408 62H119.5H152.042C153.58 62 154.542 60.3358 153.775 59.0024L126.576 11.7388C125.844 10.4663 124.036 10.3902 123.199 11.5965L104.348 38.7769C103.845 39.5028 102.925 39.8124 102.085 39.5385L81.8495 32.94C81.0413 32.6765 80.1547 32.9527 79.6392 33.6286L60.4505 58.7871C59.4465 60.1035 60.3852 62 62.0408 62Z" fill="#61D4A3"/>
<path d="M120.02 172H158.5H170.633C172.024 172 172.99 170.615 172.51 169.309L155.869 124.081C155.228 122.337 152.763 122.334 152.117 124.076L143.324 147.78C142.893 148.941 141.522 149.435 140.449 148.817L131.459 143.63C130.418 143.03 129.087 143.476 128.618 144.582L118.178 169.22C117.619 170.539 118.587 172 120.02 172Z" fill="#61D4A3"/>
<path d="M195 93.2199V47.8437H215.282C224.536 47.8437 229.163 52.1063 229.163 60.6315C229.163 69.876 214.468 78.9618 201.813 80.908L200.609 73.4194C208.215 72.0443 220.385 65.5393 220.385 60.8854C220.385 57.1199 218.504 55.2371 214.744 55.2371H203.398V93.2199H195Z" fill="#313131"/>
<path d="M247.988 59.9017C258.087 59.9017 263.136 65.0634 263.136 75.3867C263.136 76.7618 263.041 78.1368 262.851 79.5118H240.762C240.762 84.2081 244.206 86.5563 251.093 86.5563C254.453 86.5563 257.812 86.2389 261.171 85.6043V92.2679C258.235 92.9026 254.664 93.2199 250.46 93.2199C238.396 93.2199 232.364 87.5399 232.364 76.18C232.364 65.3278 237.572 59.9017 247.988 59.9017ZM240.762 73.6732H254.96V73.4194C254.96 68.8077 252.636 66.5019 247.988 66.5019C243.551 66.5019 241.142 68.8923 240.762 73.6732Z" fill="#313131"/>
<path d="M267.858 82.8437C267.858 76.2223 272.675 72.9116 282.309 72.9116C284.57 72.9116 286.831 73.1232 289.091 73.5463V71.0395C289.091 68.0567 286.947 66.5653 282.658 66.5653C279.024 66.5653 274.989 67.0942 270.552 68.1519V61.4883C274.989 60.4305 279.024 59.9017 282.658 59.9017C292.546 59.9017 297.489 63.5614 297.489 70.8808V93.2199H292.609L289.63 90.2371C286.736 92.2256 283.545 93.2199 280.059 93.2199C271.925 93.2199 267.858 89.7611 267.858 82.8437ZM289.091 79.258C286.979 78.8349 284.718 78.6233 282.309 78.6233C278.274 78.6233 276.256 79.9984 276.256 82.7485C276.256 85.7101 277.947 87.1909 281.327 87.1909C284.116 87.1909 286.704 86.3235 289.091 84.5889V79.258Z" fill="#313131"/>
<path d="M326.535 93.2199L316.93 78.0781L313.035 81.9123V93.2199H304.728V45H313.035V71.9693L324.458 60.7267H334.648L322.641 72.4892L335.881 93.2199H326.535Z" fill="#313131"/>
<path d="M243.394 163.779C239.486 165.26 235.049 166 230.084 166C213.816 166 205.682 158.12 205.682 142.36C205.682 127.446 213.816 119.989 230.084 119.989C235.049 119.989 239.486 120.73 243.394 122.21V129.826C239.486 128.134 235.26 127.287 230.718 127.287C219.837 127.287 214.397 132.312 214.397 142.36C214.397 153.254 219.837 158.702 230.718 158.702C235.26 158.702 239.486 157.856 243.394 156.163V163.779Z" fill="#313131"/>
<path d="M257.338 148.897C257.338 155.856 260.032 159.336 265.42 159.336C270.807 159.336 273.501 155.856 273.501 148.897C273.501 142.106 270.807 138.711 265.42 138.711C260.032 138.711 257.338 142.106 257.338 148.897ZM248.94 149.024C248.94 137.854 254.433 132.269 265.42 132.269C276.406 132.269 281.899 137.854 281.899 149.024C281.899 160.172 276.406 165.746 265.42 165.746C254.476 165.746 248.982 160.172 248.94 149.024Z" fill="#313131"/>
<path d="M288.237 165.683V132.364H294.734L295.78 137.251C298.97 133.993 302.604 132.364 306.682 132.364C314.562 132.364 318.502 136.468 318.502 144.676V165.683H310.104V144.676C310.104 140.995 308.277 139.155 304.622 139.155C301.896 139.155 299.234 140.244 296.635 142.423V165.683H288.237Z" fill="#313131"/>
<path d="M325.982 126.97H332.193L333.461 132.364H341.827V139.028H334.38V154.354C334.38 157.464 335.721 159.019 338.405 159.019H341.827V165.683H334.348C328.77 165.683 325.982 162.689 325.982 156.703V126.97Z" fill="#313131"/>
<path d="M347.563 165.683V132.364H354.06L355.106 136.617C358.021 133.782 361.106 132.364 364.36 132.364V139.155C361.233 139.155 358.433 140.456 355.961 143.058V165.683H347.563Z" fill="#313131"/>
<path d="M367.529 155.306C367.529 148.685 372.346 145.374 381.98 145.374C384.241 145.374 386.501 145.586 388.762 146.009V143.502C388.762 140.52 386.617 139.028 382.329 139.028C378.695 139.028 374.659 139.557 370.223 140.615V133.951C374.659 132.893 378.695 132.364 382.329 132.364C392.216 132.364 397.16 136.024 397.16 143.344V165.683H392.28L389.301 162.7C386.406 164.688 383.216 165.683 379.73 165.683C371.596 165.683 367.529 162.224 367.529 155.306ZM388.762 151.721C386.649 151.298 384.388 151.086 381.98 151.086C377.945 151.086 375.927 152.461 375.927 155.211C375.927 158.173 377.617 159.654 380.998 159.654C383.786 159.654 386.374 158.786 388.762 157.052V151.721Z" fill="#313131"/>
<path d="M405.115 164.096V157.115C408.812 158.596 413.08 159.336 417.918 159.336C421.531 159.336 423.337 158.173 423.337 155.846C423.337 153.625 422.122 152.514 419.693 152.514H413.671C406.91 152.514 403.53 149.182 403.53 142.519C403.53 135.538 408.463 132.047 418.33 132.047C422.513 132.047 426.453 132.682 430.151 133.951V140.932C426.453 139.451 422.439 138.711 418.108 138.711C413.566 138.711 411.294 139.874 411.294 142.201C411.294 144.422 412.615 145.533 415.256 145.533H420.643C428.038 145.533 431.735 148.865 431.735 155.529C431.735 162.51 427.024 166 417.601 166C412.974 166 408.812 165.365 405.115 164.096Z" fill="#313131"/>
<path d="M437.154 126.97H443.366L444.634 132.364H453V139.028H445.553V154.354C445.553 157.464 446.894 159.019 449.577 159.019H453V165.683H445.521C439.943 165.683 437.154 162.689 437.154 156.703V126.97Z" fill="#313131"/>
</svg>
