<svg width="228" height="216" viewBox="0 0 228 216" fill="none" xmlns="http://www.w3.org/2000/svg">
<path d="M180.069 86.7942L145 51.2958C144.226 50.5122 143.054 50.2747 142.036 50.6949L115.073 61.8228C114.741 61.9601 114.384 62.0298 114.024 62.0278L84.5037 61.8681C83.7874 61.8642 83.0986 62.144 82.5878 62.6462L70.0615 74.9635L49.1017 72.7094C47.4986 72.537 46.1001 73.7931 46.1001 75.4055V208.288C46.1001 209.786 47.3141 211 48.8118 211H185.653C187.188 211 188.417 209.727 188.363 208.193L183.122 89.4628C183.074 88.1147 182.043 87.0064 180.702 86.8622L180.069 86.7942Z" fill="#61D4A3"/>
<path d="M88.8535 182.526L110.769 182.526" stroke="#313131" stroke-width="5.25961"/>
<path fill-rule="evenodd" clip-rule="evenodd" d="M97.428 156.347V134.432H102.688V156.347H97.428Z" fill="#313131"/>
<rect x="64.9939" y="114.396" width="10.0183" height="10.0183" fill="#313131"/>
<rect x="123.851" y="114.396" width="10.0183" height="10.0183" fill="#313131"/>
</svg>
